<svg xlink="http://www.w3.org/1999/xlink" viewBox="0 0 5000 5000" xmlns="http://www.w3.org/2000/svg" style="transform: scale(1);"><defs><filter id="goo"><feGaussianBlur in="SourceGraphic" stdDeviation="25" result="blur"></feGaussianBlur><feColorMatrix in="blur" type="matrix" values="1 0 0 0 0 0 1 0 0 0 0 0 1 0 0 0 0 0 19 -9" result="good"></feColorMatrix><feComposite in="SourceGraphic" in2="goo" operator="atop"></feComposite></filter><path d="M187,296L176,226L318,212L327,265L187,296z" id="P0"></path><path d="M357,136L406,250L143,364L95,230L357,136z" id="P1"></path><path d="M415,315L250,427L121,129L305,82L415,315z" id="P2"></path><path d="M301,180L333,271L177,296L170,218L301,180z" id="P3"></path><path d="M167,211L233,160L313,317L289,333L167,211z" id="P4"></path><path d="M380,266L320,361L123,283L210,125L380,266z" id="P5"></path><path d="M410,325L335,405L85,185L114,137L410,325z" id="P6"></path><path d="M310,123L325,132L190,377L154,352L310,123z" id="P7"></path><path d="M137,144L325,114L349,369L221,402L137,144z" id="P8"></path><path d="M318,201L326,214L196,315L166,250L318,201z" id="P9"></path><path d="M222,395L163,370L213,107L384,187L222,395z" id="P10"></path><path d="M193,74L318,78L349,406L204,429L193,74z" id="P11"></path></defs><rect id="RECT" width="5000" height="5000" fill="#3A7D65"></rect><g id="group" fill="#0D1E15" filter="url(#goo)" opacity="0.99"><use x="-652" y="-758" href="#P7"></use><use x="-693" y="-585" href="#P4"></use><use x="-812" y="-308" href="#P9"></use><use x="-902" y="18" href="#P11"></use><use x="-1063" y="209" href="#P5"></use><use x="-898" y="365" href="#P4"></use><use x="-988" y="727" href="#P5"></use><use x="-1048" y="822" href="#P4"></use><use x="-1139" y="1370" href="#P0"></use><use x="-1208" y="1570" href="#P9"></use><use x="-1239" y="1797" href="#P8"></use><use x="-1135" y="2180" href="#P9"></use><use x="-1209" y="2546" href="#P5"></use><use x="-1146" y="2689" href="#P11"></use><use x="-1103" y="3125" href="#P3"></use><use x="-1175" y="3388" href="#P6"></use><use x="-1259" y="3674" href="#P0"></use><use x="-1047" y="3905" href="#P10"></use><use x="-1048" y="4123" href="#P3"></use><use x="-1009" y="4544" href="#P10"></use><use x="-1075" y="4625" href="#P1"></use><use x="-889" y="4992" href="#P1"></use><use x="-796" y="5188" href="#P2"></use><use x="-716" y="5426" href="#P11"></use><use x="-686" y="5678" href="#P0"></use><use x="-596" y="5771" href="#P6"></use><use x="-443" y="-785" href="#P1"></use><use x="-430" y="-675" href="#P7"></use><use x="-687" y="-383" href="#P3"></use><use x="-554" y="-232" href="#P6"></use><use x="-735" y="79" href="#P9"></use><use x="-753" y="293" href="#P2"></use><use x="-950" y="731" href="#P1"></use><use x="-846" y="844" href="#P3"></use><use x="-789" y="1209" href="#P4"></use><use x="-1038" y="1564" href="#P3"></use><use x="-852" y="1668" href="#P7"></use><use x="-942" y="2202" href="#P5"></use><use x="-1036" y="2294" href="#P1"></use><use x="-955" y="2823" href="#P6"></use><use x="-993" y="3058" href="#P5"></use><use x="-1053" y="3277" href="#P2"></use><use x="-904" y="3551" href="#P4"></use><use x="-826" y="3940" href="#P0"></use><use x="-832" y="4181" href="#P5"></use><use x="-948" y="4351" href="#P11"></use><use x="-678" y="4692" href="#P2"></use><use x="-755" y="4963" href="#P5"></use><use x="-682" y="5191" href="#P11"></use><use x="-576" y="5530" href="#P4"></use><use x="-635" y="5597" href="#P0"></use><use x="-531" y="5872" href="#P1"></use><use x="-169" y="-897" href="#P5"></use><use x="-256" y="-682" href="#P4"></use><use x="-502" y="-279" href="#P0"></use><use x="-487" y="-209" href="#P2"></use><use x="-516" y="7" href="#P1"></use><use x="-665" y="294" href="#P11"></use><use x="-520" y="444" href="#P4"></use><use x="-489" y="733" href="#P7"></use><use x="-615" y="1138" href="#P8"></use><use x="-752" y="1569" href="#P2"></use><use x="-607" y="1773" href="#P9"></use><use x="-660" y="2102" href="#P6"></use><use x="-704" y="2334" href="#P0"></use><use x="-797" y="2785" href="#P2"></use><use x="-762" y="3088" href="#P2"></use><use x="-765" y="3414" href="#P6"></use><use x="-655" y="3757" href="#P2"></use><use x="-683" y="3979" href="#P9"></use><use x="-687" y="4285" href="#P5"></use><use x="-667" y="4456" href="#P8"></use><use x="-624" y="4747" href="#P8"></use><use x="-591" y="4963" href="#P1"></use><use x="-390" y="5311" href="#P2"></use><use x="-395" y="5559" href="#P2"></use><use x="-289" y="5760" href="#P3"></use><use x="-331" y="5904" href="#P2"></use><use x="42" y="-886" href="#P7"></use><use x="-140" y="-700" href="#P10"></use><use x="-242" y="-480" href="#P9"></use><use x="-206" y="-288" href="#P0"></use><use x="-230" y="-109" href="#P5"></use><use x="-215" y="266" href="#P0"></use><use x="-387" y="465" href="#P3"></use><use x="-402" y="843" href="#P5"></use><use x="-530" y="1218" href="#P11"></use><use x="-349" y="1570" href="#P4"></use><use x="-362" y="1869" href="#P4"></use><use x="-390" y="1943" href="#P10"></use><use x="-604" y="2327" href="#P10"></use><use x="-484" y="2794" href="#P7"></use><use x="-528" y="2903" href="#P11"></use><use x="-516" y="3375" href="#P11"></use><use x="-507" y="3617" href="#P6"></use><use x="-309" y="4058" href="#P8"></use><use x="-381" y="4285" href="#P7"></use><use x="-424" y="4482" href="#P8"></use><use x="-299" y="4826" href="#P5"></use><use x="-196" y="5021" href="#P1"></use><use x="-73" y="5455" href="#P3"></use><use x="-193" y="5610" href="#P1"></use><use x="-137" y="5793" href="#P5"></use><use x="-133" y="5935" href="#P4"></use><use x="271" y="-902" href="#P0"></use><use x="89" y="-776" href="#P2"></use><use x="216" y="-665" href="#P1"></use><use x="156" y="-346" href="#P8"></use><use x="17" y="46" href="#P7"></use><use x="9" y="219" href="#P11"></use><use x="-70" y="390" href="#P10"></use><use x="-97" y="862" href="#P4"></use><use x="-131" y="1156" href="#P11"></use><use x="-174" y="1267" href="#P0"></use><use x="-189" y="1639" href="#P5"></use><use x="-260" y="2123" href="#P4"></use><use x="-346" y="2401" href="#P0"></use><use x="-194" y="2796" href="#P8"></use><use x="-157" y="3184" href="#P11"></use><use x="-309" y="3331" href="#P3"></use><use x="-286" y="3847" href="#P10"></use><use x="2" y="4131" href="#P1"></use><use x="-167" y="4186" href="#P8"></use><use x="-186" y="4713" href="#P11"></use><use x="4" y="4913" href="#P7"></use><use x="38" y="5157" href="#P4"></use><use x="-14" y="5364" href="#P6"></use><use x="66" y="5569" href="#P10"></use><use x="244" y="5924" href="#P8"></use><use x="272" y="6153" href="#P6"></use><use x="392" y="-938" href="#P3"></use><use x="462" y="-891" href="#P1"></use><use x="395" y="-519" href="#P9"></use><use x="324" y="-284" href="#P7"></use><use x="146" y="-78" href="#P2"></use><use x="188" y="174" href="#P5"></use><use x="134" y="490" href="#P9"></use><use x="281" y="863" href="#P11"></use><use x="64" y="1015" href="#P0"></use><use x="195" y="1533" href="#P6"></use><use x="32" y="1770" href="#P8"></use><use x="16" y="1900" href="#P2"></use><use x="58" y="2379" href="#P6"></use><use x="182" y="2838" href="#P7"></use><use x="72" y="3208" href="#P5"></use><use x="-5" y="3501" href="#P11"></use><use x="34" y="3664" href="#P11"></use><use x="221" y="4217" href="#P4"></use><use x="166" y="4450" href="#P9"></use><use x="186" y="4590" href="#P2"></use><use x="263" y="4995" href="#P8"></use><use x="328" y="5145" href="#P7"></use><use x="407" y="5468" href="#P11"></use><use x="504" y="5754" href="#P11"></use><use x="451" y="5925" href="#P7"></use><use x="565" y="6030" href="#P10"></use><use x="857" y="-1094" href="#P5"></use><use x="646" y="-965" href="#P10"></use><use x="684" y="-540" href="#P5"></use><use x="514" y="-258" href="#P1"></use><use x="632" y="-17" href="#P10"></use><use x="673" y="123" href="#P6"></use><use x="384" y="500" href="#P5"></use><use x="595" y="637" href="#P3"></use><use x="424" y="994" href="#P7"></use><use x="479" y="1452" href="#P5"></use><use x="313" y="1639" href="#P6"></use><use x="236" y="2157" href="#P8"></use><use x="491" y="2498" href="#P7"></use><use x="417" y="2657" href="#P8"></use><use x="299" y="2960" href="#P6"></use><use x="478" y="3572" href="#P3"></use><use x="495" y="3899" href="#P7"></use><use x="371" y="4122" href="#P5"></use><use x="471" y="4276" href="#P6"></use><use x="580" y="4614" href="#P1"></use><use x="658" y="5040" href="#P11"></use><use x="585" y="5336" href="#P8"></use><use x="579" y="5549" href="#P7"></use><use x="571" y="5689" href="#P5"></use><use x="579" y="5855" href="#P2"></use><use x="696" y="6098" href="#P0"></use><use x="1085" y="-1054" href="#P3"></use><use x="1003" y="-922" href="#P2"></use><use x="961" y="-668" href="#P3"></use><use x="1033" y="-536" href="#P1"></use><use x="898" y="-41" href="#P10"></use><use x="915" y="104" href="#P4"></use><use x="890" y="316" href="#P8"></use><use x="673" y="843" href="#P5"></use><use x="708" y="943" href="#P11"></use><use x="768" y="1339" href="#P4"></use><use x="594" y="1757" href="#P0"></use><use x="711" y="2067" href="#P3"></use><use x="748" y="2271" href="#P0"></use><use x="753" y="2862" href="#P0"></use><use x="751" y="3152" href="#P7"></use><use x="635" y="3454" href="#P0"></use><use x="777" y="3711" href="#P5"></use><use x="845" y="4050" href="#P2"></use><use x="799" y="4309" href="#P5"></use><use x="898" y="4892" href="#P2"></use><use x="975" y="5140" href="#P6"></use><use x="822" y="5319" href="#P1"></use><use x="1050" y="5620" href="#P11"></use><use x="836" y="5642" href="#P6"></use><use x="833" y="5916" href="#P5"></use><use x="981" y="6120" href="#P7"></use><use x="1275" y="-1039" href="#P2"></use><use x="1375" y="-969" href="#P2"></use><use x="1254" y="-759" href="#P0"></use><use x="1067" y="-371" href="#P3"></use><use x="1286" y="-98" href="#P9"></use><use x="1156" y="104" href="#P2"></use><use x="1203" y="300" href="#P2"></use><use x="1241" y="750" href="#P2"></use><use x="1024" y="930" href="#P4"></use><use x="1076" y="1293" href="#P0"></use><use x="865" y="1716" href="#P5"></use><use x="1074" y="1997" href="#P6"></use><use x="1174" y="2393" href="#P7"></use><use x="884" y="2898" href="#P6"></use><use x="980" y="3212" href="#P9"></use><use x="1026" y="3642" href="#P0"></use><use x="1051" y="3825" href="#P7"></use><use x="1210" y="4306" href="#P7"></use><use x="1167" y="4423" href="#P10"></use><use x="979" y="4779" href="#P10"></use><use x="1069" y="5127" href="#P8"></use><use x="1169" y="5338" href="#P4"></use><use x="1087" y="5450" href="#P4"></use><use x="1135" y="5894" href="#P10"></use><use x="1291" y="6072" href="#P6"></use><use x="1255" y="6224" href="#P7"></use><use x="1726" y="-1095" href="#P10"></use><use x="1544" y="-911" href="#P3"></use><use x="1531" y="-734" href="#P9"></use><use x="1619" y="-517" href="#P10"></use><use x="1619" y="-285" href="#P6"></use><use x="1511" y="-44" href="#P9"></use><use x="1406" y="357" href="#P8"></use><use x="1273" y="631" href="#P2"></use><use x="1310" y="1121" href="#P6"></use><use x="1339" y="1458" href="#P2"></use><use x="1503" y="1500" href="#P11"></use><use x="1377" y="1927" href="#P1"></use><use x="1509" y="2468" href="#P2"></use><use x="1236" y="2650" href="#P11"></use><use x="1457" y="3138" href="#P7"></use><use x="1248" y="3514" href="#P0"></use><use x="1293" y="3865" href="#P2"></use><use x="1428" y="4107" href="#P1"></use><use x="1547" y="4579" href="#P3"></use><use x="1554" y="4713" href="#P2"></use><use x="1558" y="4941" href="#P0"></use><use x="1348" y="5260" href="#P8"></use><use x="1488" y="5473" href="#P11"></use><use x="1632" y="5906" href="#P2"></use><use x="1699" y="5938" href="#P7"></use><use x="1683" y="6289" href="#P11"></use><use x="1764" y="-1141" href="#P7"></use><use x="1963" y="-897" href="#P2"></use><use x="1776" y="-784" href="#P11"></use><use x="1846" y="-478" href="#P9"></use><use x="1822" y="-270" href="#P8"></use><use x="1824" y="27" href="#P11"></use><use x="1629" y="312" href="#P10"></use><use x="1770" y="601" href="#P5"></use><use x="1624" y="834" href="#P10"></use><use x="1872" y="1377" href="#P2"></use><use x="1893" y="1474" href="#P10"></use><use x="1725" y="2029" href="#P11"></use><use x="1768" y="2555" href="#P1"></use><use x="1872" y="2877" href="#P0"></use><use x="1592" y="2976" href="#P1"></use><use x="1860" y="3564" href="#P8"></use><use x="1900" y="3977" href="#P8"></use><use x="1937" y="4035" href="#P1"></use><use x="1893" y="4466" href="#P6"></use><use x="1911" y="4785" href="#P8"></use><use x="1728" y="5137" href="#P9"></use><use x="1996" y="5476" href="#P7"></use><use x="1825" y="5488" href="#P7"></use><use x="1852" y="5858" href="#P4"></use><use x="1850" y="6034" href="#P7"></use><use x="1885" y="6284" href="#P9"></use><use x="2122" y="-1171" href="#P6"></use><use x="2232" y="-870" href="#P2"></use><use x="2185" y="-768" href="#P9"></use><use x="2055" y="-524" href="#P9"></use><use x="2133" y="-149" href="#P10"></use><use x="2210" y="-94" href="#P3"></use><use x="2057" y="226" href="#P7"></use><use x="2170" y="730" href="#P1"></use><use x="2167" y="967" href="#P11"></use><use x="2081" y="1435" href="#P3"></use><use x="1951" y="1753" href="#P7"></use><use x="1958" y="2155" href="#P11"></use><use x="2000" y="2329" href="#P2"></use><use x="2116" y="2657" href="#P2"></use><use x="1929" y="2995" href="#P6"></use><use x="2085" y="3669" href="#P11"></use><use x="2048" y="3931" href="#P11"></use><use x="2171" y="4308" href="#P11"></use><use x="2048" y="4552" href="#P5"></use><use x="2120" y="4751" href="#P3"></use><use x="2141" y="4971" href="#P2"></use><use x="2201" y="5476" href="#P4"></use><use x="2279" y="5644" href="#P6"></use><use x="2035" y="5929" href="#P3"></use><use x="2176" y="6125" href="#P5"></use><use x="2062" y="6288" href="#P5"></use><use x="2567" y="-1108" href="#P3"></use><use x="2378" y="-986" href="#P9"></use><use x="2405" y="-769" href="#P0"></use><use x="2593" y="-426" href="#P5"></use><use x="2330" y="-239" href="#P11"></use><use x="2670" y="80" href="#P7"></use><use x="2528" y="432" href="#P9"></use><use x="2331" y="763" href="#P4"></use><use x="2450" y="815" href="#P10"></use><use x="2419" y="1188" href="#P10"></use><use x="2415" y="1776" href="#P1"></use><use x="2638" y="1927" href="#P0"></use><use x="2518" y="2313" href="#P10"></use><use x="2434" y="2859" href="#P1"></use><use x="2387" y="3265" href="#P0"></use><use x="2608" y="3397" href="#P11"></use><use x="2427" y="3988" href="#P4"></use><use x="2538" y="4288" href="#P1"></use><use x="2482" y="4394" href="#P7"></use><use x="2470" y="4915" href="#P5"></use><use x="2560" y="5022" href="#P10"></use><use x="2382" y="5376" href="#P0"></use><use x="2488" y="5676" href="#P5"></use><use x="2632" y="5772" href="#P10"></use><use x="2497" y="6137" href="#P7"></use><use x="2584" y="6366" href="#P5"></use><use x="2791" y="-1227" href="#P10"></use><use x="2812" y="-988" href="#P4"></use><use x="2715" y="-805" href="#P4"></use><use x="2971" y="-458" href="#P4"></use><use x="2684" y="-136" href="#P10"></use><use x="2724" y="61" href="#P6"></use><use x="2898" y="309" href="#P3"></use><use x="2690" y="616" href="#P8"></use><use x="2825" y="977" href="#P4"></use><use x="3052" y="1219" href="#P7"></use><use x="2743" y="1553" href="#P5"></use><use x="2996" y="2126" href="#P8"></use><use x="3008" y="2318" href="#P11"></use><use x="2883" y="2962" href="#P8"></use><use x="2808" y="3273" href="#P10"></use><use x="2909" y="3567" href="#P5"></use><use x="2736" y="3733" href="#P7"></use><use x="2943" y="4220" href="#P10"></use><use x="2686" y="4381" href="#P10"></use><use x="2965" y="4733" href="#P1"></use><use x="2698" y="5060" href="#P0"></use><use x="2812" y="5425" href="#P6"></use><use x="2892" y="5515" href="#P8"></use><use x="2738" y="5769" href="#P11"></use><use x="2907" y="6153" href="#P10"></use><use x="2708" y="6313" href="#P9"></use><use x="3144" y="-1229" href="#P7"></use><use x="3010" y="-1070" href="#P2"></use><use x="3113" y="-679" href="#P7"></use><use x="3167" y="-408" href="#P9"></use><use x="3159" y="-358" href="#P1"></use><use x="3285" y="57" href="#P2"></use><use x="3367" y="327" href="#P6"></use><use x="3380" y="532" href="#P11"></use><use x="3274" y="1067" href="#P7"></use><use x="3364" y="1342" href="#P6"></use><use x="3183" y="1678" href="#P11"></use><use x="3376" y="2196" href="#P1"></use><use x="3118" y="2278" href="#P9"></use><use x="3332" y="2900" href="#P5"></use><use x="3436" y="3189" href="#P5"></use><use x="3387" y="3610" href="#P5"></use><use x="3261" y="3772" href="#P10"></use><use x="3375" y="4176" href="#P7"></use><use x="3049" y="4481" href="#P5"></use><use x="3134" y="4686" href="#P4"></use><use x="3161" y="5055" href="#P10"></use><use x="3101" y="5438" href="#P7"></use><use x="3293" y="5572" href="#P7"></use><use x="3228" y="5936" href="#P6"></use><use x="3092" y="6107" href="#P6"></use><use x="3203" y="6244" href="#P8"></use><use x="3267" y="-1244" href="#P7"></use><use x="3362" y="-968" href="#P1"></use><use x="3433" y="-822" href="#P10"></use><use x="3429" y="-354" href="#P8"></use><use x="3459" y="-280" href="#P8"></use><use x="3608" y="48" href="#P2"></use><use x="3503" y="442" href="#P3"></use><use x="3521" y="792" href="#P3"></use><use x="3513" y="832" href="#P6"></use><use x="3508" y="1159" href="#P8"></use><use x="3475" y="1488" href="#P8"></use><use x="3471" y="1907" href="#P1"></use><use x="3657" y="2521" href="#P9"></use><use x="3589" y="2719" href="#P8"></use><use x="3544" y="2998" href="#P1"></use><use x="3459" y="3536" href="#P8"></use><use x="3542" y="3869" href="#P5"></use><use x="3704" y="4137" href="#P6"></use><use x="3650" y="4605" href="#P5"></use><use x="3541" y="4777" href="#P8"></use><use x="3604" y="5019" href="#P9"></use><use x="3436" y="5455" href="#P4"></use><use x="3349" y="5484" href="#P4"></use><use x="3562" y="5852" href="#P1"></use><use x="3558" y="5955" href="#P8"></use><use x="3363" y="6164" href="#P2"></use><use x="3844" y="-1133" href="#P10"></use><use x="3746" y="-953" href="#P8"></use><use x="3841" y="-645" href="#P8"></use><use x="3826" y="-424" href="#P7"></use><use x="3680" y="-234" href="#P1"></use><use x="4015" y="50" href="#P7"></use><use x="3794" y="435" href="#P8"></use><use x="3778" y="741" href="#P10"></use><use x="3983" y="1139" href="#P8"></use><use x="3833" y="1356" href="#P10"></use><use x="3898" y="1707" href="#P10"></use><use x="3959" y="2155" href="#P6"></use><use x="4033" y="2507" href="#P10"></use><use x="4056" y="2694" href="#P9"></use><use x="3958" y="3088" href="#P7"></use><use x="4069" y="3479" href="#P7"></use><use x="3973" y="3696" href="#P5"></use><use x="3974" y="4112" href="#P1"></use><use x="3743" y="4441" href="#P10"></use><use x="3839" y="4714" href="#P3"></use><use x="3842" y="5086" href="#P10"></use><use x="3873" y="5407" href="#P6"></use><use x="3660" y="5624" href="#P2"></use><use x="3683" y="5915" href="#P4"></use><use x="3789" y="5962" href="#P7"></use><use x="3814" y="6288" href="#P3"></use><use x="3936" y="-1157" href="#P6"></use><use x="4023" y="-805" href="#P5"></use><use x="4210" y="-591" href="#P1"></use><use x="4010" y="-459" href="#P10"></use><use x="4033" y="-120" href="#P9"></use><use x="4303" y="177" href="#P8"></use><use x="4199" y="358" href="#P7"></use><use x="4338" y="816" href="#P3"></use><use x="4419" y="1141" href="#P1"></use><use x="4225" y="1250" href="#P1"></use><use x="4369" y="1858" href="#P6"></use><use x="4391" y="1984" href="#P1"></use><use x="4439" y="2556" href="#P3"></use><use x="4163" y="2910" href="#P6"></use><use x="4361" y="3263" href="#P1"></use><use x="4389" y="3610" href="#P6"></use><use x="4371" y="3820" href="#P4"></use><use x="4384" y="4090" href="#P11"></use><use x="4326" y="4307" href="#P10"></use><use x="4265" y="4721" href="#P1"></use><use x="4166" y="4922" href="#P0"></use><use x="4104" y="5237" href="#P10"></use><use x="4243" y="5428" href="#P7"></use><use x="4179" y="5850" href="#P5"></use><use x="4036" y="6098" href="#P9"></use><use x="3845" y="6280" href="#P5"></use><use x="4169" y="-1035" href="#P8"></use><use x="4460" y="-783" href="#P2"></use><use x="4347" y="-515" href="#P9"></use><use x="4355" y="-378" href="#P1"></use><use x="4335" y="-94" href="#P9"></use><use x="4410" y="21" href="#P1"></use><use x="4440" y="298" href="#P4"></use><use x="4587" y="587" href="#P6"></use><use x="4657" y="1006" href="#P0"></use><use x="4492" y="1381" href="#P0"></use><use x="4718" y="1863" href="#P10"></use><use x="4751" y="2087" href="#P6"></use><use x="4586" y="2360" href="#P2"></use><use x="4502" y="2751" href="#P10"></use><use x="4542" y="3189" href="#P3"></use><use x="4670" y="3326" href="#P4"></use><use x="4704" y="3875" href="#P10"></use><use x="4696" y="4140" href="#P10"></use><use x="4416" y="4547" href="#P5"></use><use x="4434" y="4582" href="#P3"></use><use x="4446" y="5007" href="#P6"></use><use x="4460" y="5311" href="#P4"></use><use x="4305" y="5527" href="#P6"></use><use x="4429" y="5656" href="#P3"></use><use x="4337" y="5943" href="#P0"></use><use x="4298" y="6106" href="#P2"></use><use x="4588" y="-956" href="#P3"></use><use x="4621" y="-845" href="#P1"></use><use x="4529" y="-639" href="#P3"></use><use x="4769" y="-433" href="#P0"></use><use x="4678" y="-152" href="#P3"></use><use x="4846" y="130" href="#P11"></use><use x="4791" y="600" href="#P10"></use><use x="4965" y="696" href="#P1"></use><use x="4850" y="948" href="#P4"></use><use x="4987" y="1353" href="#P9"></use><use x="5030" y="1604" href="#P10"></use><use x="5056" y="2095" href="#P4"></use><use x="4798" y="2548" href="#P5"></use><use x="5041" y="2645" href="#P3"></use><use x="4860" y="3020" href="#P8"></use><use x="4903" y="3358" href="#P0"></use><use x="5003" y="3630" href="#P11"></use><use x="4773" y="4228" href="#P5"></use><use x="4771" y="4481" href="#P2"></use><use x="4911" y="4616" href="#P8"></use><use x="4680" y="4974" href="#P5"></use><use x="4664" y="5296" href="#P9"></use><use x="4533" y="5536" href="#P0"></use><use x="4734" y="5673" href="#P4"></use><use x="4561" y="5903" href="#P2"></use><use x="4647" y="6038" href="#P2"></use><use x="4785" y="-1038" href="#P7"></use><use x="4951" y="-729" href="#P7"></use><use x="5028" y="-459" href="#P8"></use><use x="4984" y="-235" href="#P11"></use><use x="5037" y="-108" href="#P5"></use><use x="5055" y="298" href="#P10"></use><use x="4960" y="468" href="#P3"></use><use x="5256" y="774" href="#P10"></use><use x="5186" y="1081" href="#P7"></use><use x="5162" y="1276" href="#P11"></use><use x="5101" y="1648" href="#P3"></use><use x="5172" y="2153" href="#P3"></use><use x="5188" y="2572" href="#P11"></use><use x="5166" y="2804" href="#P6"></use><use x="5317" y="3166" href="#P6"></use><use x="5238" y="3284" href="#P2"></use><use x="5230" y="3733" href="#P0"></use><use x="5152" y="4000" href="#P6"></use><use x="5082" y="4300" href="#P8"></use><use x="5183" y="4565" href="#P4"></use><use x="4998" y="4916" href="#P4"></use><use x="4873" y="5127" href="#P1"></use><use x="4907" y="5449" href="#P4"></use><use x="4837" y="5721" href="#P10"></use><use x="4889" y="5812" href="#P0"></use><use x="4803" y="6108" href="#P11"></use><use x="5077" y="-916" href="#P5"></use><use x="5121" y="-786" href="#P9"></use><use x="5084" y="-549" href="#P4"></use><use x="5299" y="-173" href="#P9"></use><use x="5128" y="-94" href="#P3"></use><use x="5197" y="190" href="#P3"></use><use x="5375" y="631" href="#P10"></use><use x="5325" y="770" href="#P8"></use><use x="5334" y="1097" href="#P2"></use><use x="5561" y="1306" href="#P7"></use><use x="5458" y="1891" href="#P5"></use><use x="5396" y="2238" href="#P6"></use><use x="5581" y="2310" href="#P0"></use><use x="5440" y="2635" href="#P10"></use><use x="5544" y="3184" href="#P2"></use><use x="5444" y="3445" href="#P10"></use><use x="5470" y="3588" href="#P9"></use><use x="5427" y="4122" href="#P8"></use><use x="5321" y="4267" href="#P5"></use><use x="5435" y="4566" href="#P9"></use><use x="5307" y="4886" href="#P3"></use><use x="5230" y="5200" href="#P4"></use><use x="5278" y="5384" href="#P0"></use><use x="5061" y="5565" href="#P6"></use><use x="5164" y="5850" href="#P3"></use><use x="5015" y="6078" href="#P0"></use><use x="5217" y="-863" href="#P3"></use><use x="5342" y="-705" href="#P9"></use><use x="5450" y="-486" href="#P8"></use><use x="5547" y="-161" href="#P10"></use><use x="5489" y="7" href="#P11"></use><use x="5533" y="316" href="#P4"></use><use x="5581" y="626" href="#P6"></use><use x="5712" y="979" href="#P9"></use><use x="5796" y="1254" href="#P11"></use><use x="5650" y="1462" href="#P7"></use><use x="5808" y="1852" href="#P1"></use><use x="5765" y="2110" href="#P0"></use><use x="5697" y="2559" href="#P4"></use><use x="5809" y="2872" href="#P0"></use><use x="5658" y="3175" href="#P4"></use><use x="5709" y="3358" href="#P2"></use><use x="5799" y="3766" href="#P7"></use><use x="5661" y="3838" href="#P3"></use><use x="5698" y="4337" href="#P11"></use><use x="5627" y="4591" href="#P4"></use><use x="5533" y="4828" href="#P8"></use><use x="5385" y="4981" href="#P8"></use><use x="5521" y="5261" href="#P11"></use><use x="5415" y="5467" href="#P7"></use><use x="5352" y="5646" href="#P7"></use><use x="5288" y="5874" href="#P8"></use><use x="5603" y="-775" href="#P6"></use><use x="5685" y="-456" href="#P8"></use><use x="5547" y="-391" href="#P1"></use><use x="5706" y="-153" href="#P6"></use><use x="5723" y="95" href="#P11"></use><use x="5802" y="317" href="#P1"></use><use x="5741" y="697" href="#P4"></use><use x="5836" y="807" href="#P5"></use><use x="5815" y="1272" href="#P6"></use><use x="5928" y="1455" href="#P6"></use><use x="5943" y="1928" href="#P3"></use><use x="6044" y="2244" href="#P5"></use><use x="5870" y="2388" href="#P8"></use><use x="5877" y="2748" href="#P1"></use><use x="5860" y="2961" href="#P7"></use><use x="6028" y="3439" href="#P1"></use><use x="5947" y="3768" href="#P1"></use><use x="5900" y="3961" href="#P7"></use><use x="5927" y="4105" href="#P3"></use><use x="5772" y="4374" href="#P11"></use><use x="5833" y="4732" href="#P6"></use><use x="5721" y="5000" href="#P7"></use><use x="5637" y="5292" href="#P6"></use><use x="5638" y="5505" href="#P8"></use><use x="5639" y="5588" href="#P0"></use><use x="5479" y="5888" href="#P9"></use><use x="5644" y="-731" href="#P7"></use><use x="5697" y="-617" href="#P5"></use><use x="5725" y="-364" href="#P5"></use><use x="5979" y="27" href="#P4"></use><use x="5974" y="70" href="#P8"></use><use x="5931" y="391" href="#P1"></use><use x="6041" y="747" href="#P11"></use><use x="6055" y="903" href="#P3"></use><use x="6126" y="1246" href="#P9"></use><use x="6121" y="1583" href="#P9"></use><use x="6180" y="1715" href="#P5"></use><use x="6181" y="2093" href="#P11"></use><use x="6267" y="2305" href="#P6"></use><use x="6278" y="2624" href="#P10"></use><use x="6159" y="2919" href="#P6"></use><use x="6232" y="3447" href="#P2"></use><use x="6065" y="3727" href="#P10"></use><use x="6146" y="3984" href="#P3"></use><use x="6157" y="4047" href="#P6"></use><use x="6042" y="4529" href="#P10"></use><use x="5893" y="4663" href="#P8"></use><use x="5850" y="4938" href="#P1"></use><use x="5822" y="5166" href="#P8"></use><use x="5781" y="5484" href="#P6"></use><use x="5664" y="5598" href="#P6"></use><use x="5625" y="5820" href="#P9"></use></g></svg>